<?xml version="1.0" encoding="UTF-8"?>
<!DOCTYPE svg PUBLIC "-//W3C//DTD SVG 1.1//EN" "http://www.w3.org/Graphics/SVG/1.1/DTD/svg11.dtd">
<svg xmlns="http://www.w3.org/2000/svg" version="1.1" width="512px" height="512px" style="shape-rendering:geometricPrecision; text-rendering:geometricPrecision; image-rendering:optimizeQuality; fill-rule:evenodd; clip-rule:evenodd" xmlns:xlink="http://www.w3.org/1999/xlink">
<g><path style="opacity:0.998" fill="#111317" d="M 112.5,39.5 C 207.834,39.3333 303.167,39.5 398.5,40C 438.667,48.1667 462.833,72.3333 471,112.5C 471.667,207.833 471.667,303.167 471,398.5C 462.833,438.667 438.667,462.833 398.5,471C 303.167,471.667 207.833,471.667 112.5,471C 72.3333,462.833 48.1667,438.667 40,398.5C 39.3333,303.167 39.3333,207.833 40,112.5C 48.3468,72.3202 72.5134,47.9869 112.5,39.5 Z"/></g>
<g><path style="opacity:1" fill="#265948" d="M 177.5,112.5 C 171.131,112.347 164.797,112.68 158.5,113.5C 158.918,112.778 159.584,112.278 160.5,112C 166.349,111.182 172.015,111.348 177.5,112.5 Z"/></g>
<g><path style="opacity:1" fill="#47bc97" d="M 177.5,112.5 C 178.492,112.328 179.158,112.662 179.5,113.5C 172.151,113.549 164.817,113.882 157.5,114.5C 157.5,114.167 157.5,113.833 157.5,113.5C 157.833,113.5 158.167,113.5 158.5,113.5C 164.797,112.68 171.131,112.347 177.5,112.5 Z"/></g>
<g><path style="opacity:1" fill="#42ab8c" d="M 354.5,116.5 C 344.36,116.004 334.36,116.671 324.5,118.5C 324.5,118.167 324.5,117.833 324.5,117.5C 326.403,117.204 328.07,116.537 329.5,115.5C 338.045,113.94 346.378,114.273 354.5,116.5 Z"/></g>
<g><path style="opacity:1" fill="#337e67" d="M 157.5,113.5 C 157.5,113.833 157.5,114.167 157.5,114.5C 154.619,115.683 151.619,116.683 148.5,117.5C 149.903,116.069 151.569,114.902 153.5,114C 154.793,113.51 156.127,113.343 157.5,113.5 Z"/></g>
<g><path style="opacity:1" fill="#5dfdca" d="M 179.5,113.5 C 186.072,115.453 192.072,118.453 197.5,122.5C 200.764,126.431 204.431,130.098 208.5,133.5C 215.633,146.767 222.466,160.1 229,173.5C 229.278,172.584 229.778,171.918 230.5,171.5C 231.167,172.167 231.833,172.833 232.5,173.5C 232.62,176.578 233.62,179.245 235.5,181.5C 237.223,182.605 238.223,184.272 238.5,186.5C 239.398,190.871 241.065,194.871 243.5,198.5C 244.143,200.076 245.143,201.41 246.5,202.5C 246.241,204.989 247.241,206.656 249.5,207.5C 249.833,208.5 250.5,209.167 251.5,209.5C 253.301,212.799 255.301,213.132 257.5,210.5C 259.179,210.715 260.179,210.048 260.5,208.5C 262.262,207.738 263.262,206.404 263.5,204.5C 264.537,203.07 265.204,201.403 265.5,199.5C 266.401,198.71 267.068,197.71 267.5,196.5C 269.731,193.164 271.397,189.497 272.5,185.5C 274.176,184.817 274.843,183.483 274.5,181.5C 276.176,180.817 276.843,179.483 276.5,177.5C 277.404,176.791 277.737,175.791 277.5,174.5C 278.906,174.027 279.573,173.027 279.5,171.5C 280.167,171.167 280.833,170.833 281.5,170.5C 282.5,170.5 283.5,170.5 284.5,170.5C 289.14,158.222 295.14,146.556 302.5,135.5C 307.938,129.096 314.604,124.762 322.5,122.5C 322.5,121.5 322.5,120.5 322.5,119.5C 322.842,118.662 323.508,118.328 324.5,118.5C 334.36,116.671 344.36,116.004 354.5,116.5C 356.565,116.517 358.565,116.85 360.5,117.5C 364.155,119.994 368.155,121.994 372.5,123.5C 373.27,125.935 374.937,127.269 377.5,127.5C 379.167,128.833 380.833,130.167 382.5,131.5C 384.094,134.764 386.427,137.431 389.5,139.5C 389.427,141.027 390.094,142.027 391.5,142.5C 392.083,145.947 393.416,148.947 395.5,151.5C 395.5,151.833 395.5,152.167 395.5,152.5C 396.341,159.465 396.674,166.465 396.5,173.5C 396.737,174.791 396.404,175.791 395.5,176.5C 394.629,179.003 393.963,181.67 393.5,184.5C 388.102,194.587 383.102,204.92 378.5,215.5C 377.326,216.514 376.66,217.847 376.5,219.5C 374.175,224.123 371.842,228.789 369.5,233.5C 368.732,232.737 368.232,231.737 368,230.5C 363.711,238.708 360.877,246.042 359.5,252.5C 358.178,252.33 357.011,252.663 356,253.5C 341.54,283.088 327.04,312.754 312.5,342.5C 311.52,345.086 311.187,347.753 311.5,350.5C 310.89,351.391 310.557,352.391 310.5,353.5C 310.5,353.833 310.5,354.167 310.5,354.5C 308.178,355.802 306.845,357.802 306.5,360.5C 305.326,361.514 304.66,362.847 304.5,364.5C 303.326,365.514 302.66,366.847 302.5,368.5C 302.5,368.833 302.5,369.167 302.5,369.5C 300.801,371.566 299.468,373.9 298.5,376.5C 297.449,377.222 296.782,378.222 296.5,379.5C 295.094,379.973 294.427,380.973 294.5,382.5C 293.167,383.167 292.167,384.167 291.5,385.5C 289.223,386.449 287.223,387.782 285.5,389.5C 285.5,389.833 285.5,390.167 285.5,390.5C 278.799,393.563 272.132,396.563 265.5,399.5C 264.167,399.5 262.833,399.5 261.5,399.5C 256.5,399.5 251.5,399.5 246.5,399.5C 240.75,397.916 235.084,395.916 229.5,393.5C 228.508,393.672 227.842,393.338 227.5,392.5C 226.738,390.738 225.404,389.738 223.5,389.5C 222.167,389.5 221.5,388.833 221.5,387.5C 220.738,385.738 219.404,384.738 217.5,384.5C 215.833,382.5 214.167,380.5 212.5,378.5C 212.573,376.973 211.906,375.973 210.5,375.5C 209.498,373.989 208.831,372.322 208.5,370.5C 208.426,367.341 207.093,365.008 204.5,363.5C 204.672,362.508 204.338,361.842 203.5,361.5C 203.771,359.62 203.104,358.287 201.5,357.5C 200.904,355.255 199.904,353.255 198.5,351.5C 198.34,349.847 197.674,348.514 196.5,347.5C 194.3,341.005 191.3,335.005 187.5,329.5C 187.88,327.302 187.213,325.635 185.5,324.5C 184.492,322.456 183.492,320.456 182.5,318.5C 181.161,315.497 179.828,312.497 178.5,309.5C 178.346,307.03 177.346,305.03 175.5,303.5C 175.34,301.847 174.674,300.514 173.5,299.5C 173.25,297.326 172.25,295.659 170.5,294.5C 170.771,292.62 170.104,291.287 168.5,290.5C 167.596,289.791 167.263,288.791 167.5,287.5C 166.766,286.292 166.433,284.959 166.5,283.5C 166.662,281.473 166.495,279.473 166,277.5C 159.523,264.56 153.356,251.56 147.5,238.5C 146.5,238.5 145.5,238.5 144.5,238.5C 144.167,238.5 143.833,238.5 143.5,238.5C 143.573,236.973 142.906,235.973 141.5,235.5C 141.657,234.127 141.49,232.793 141,231.5C 140.098,229.569 138.931,227.903 137.5,226.5C 137.672,225.508 137.338,224.842 136.5,224.5C 136.245,222.033 135.245,220.033 133.5,218.5C 132.317,215.439 130.984,212.439 129.5,209.5C 129.573,207.973 128.906,206.973 127.5,206.5C 127.5,206.167 127.5,205.833 127.5,205.5C 127.34,203.847 126.674,202.514 125.5,201.5C 124.833,200.167 124.167,198.833 123.5,197.5C 123.573,195.973 122.906,194.973 121.5,194.5C 120.833,192.833 120.167,191.167 119.5,189.5C 119.443,188.391 119.11,187.391 118.5,186.5C 117.8,182.762 116.8,179.095 115.5,175.5C 114.946,159.873 119.446,145.873 129,133.5C 131.592,130.238 134.759,127.738 138.5,126C 139.386,124.385 140.386,122.885 141.5,121.5C 141.833,120.833 142.167,120.167 142.5,119.5C 143.167,119.5 143.833,119.5 144.5,119.5C 145.995,119.011 147.329,118.345 148.5,117.5C 151.619,116.683 154.619,115.683 157.5,114.5C 164.817,113.882 172.151,113.549 179.5,113.5 Z"/></g>
<g><path style="opacity:1" fill="#285d4d" d="M 329.5,115.5 C 328.07,116.537 326.403,117.204 324.5,117.5C 325.635,115.787 327.302,115.12 329.5,115.5 Z"/></g>
<g><path style="opacity:1" fill="#378870" d="M 148.5,117.5 C 147.329,118.345 145.995,119.011 144.5,119.5C 145.183,117.824 146.517,117.157 148.5,117.5 Z"/></g>
<g><path style="opacity:1" fill="#388e73" d="M 324.5,117.5 C 324.5,117.833 324.5,118.167 324.5,118.5C 323.508,118.328 322.842,118.662 322.5,119.5C 321.833,119.5 321.167,119.5 320.5,119.5C 321.183,117.824 322.517,117.157 324.5,117.5 Z"/></g>
<g><path style="opacity:1" fill="#45b392" d="M 179.5,113.5 C 187.612,114.06 194.612,117.06 200.5,122.5C 199.5,122.5 198.5,122.5 197.5,122.5C 192.072,118.453 186.072,115.453 179.5,113.5 Z"/></g>
<g><path style="opacity:1" fill="#2e6d5b" d="M 142.5,119.5 C 142.167,120.167 141.833,120.833 141.5,121.5C 140.833,121.5 140.167,121.5 139.5,121.5C 139.973,120.094 140.973,119.427 142.5,119.5 Z"/></g>
<g><path style="opacity:1" fill="#46b594" d="M 320.5,119.5 C 318.572,121.294 316.238,122.294 313.5,122.5C 315.428,120.706 317.762,119.706 320.5,119.5 Z"/></g>
<g><path style="opacity:1" fill="#45b392" d="M 360.5,117.5 C 365.084,118.459 369.084,120.459 372.5,123.5C 368.155,121.994 364.155,119.994 360.5,117.5 Z"/></g>
<g><path style="opacity:1" fill="#389074" d="M 139.5,121.5 C 139.027,122.906 138.027,123.573 136.5,123.5C 136.973,122.094 137.973,121.427 139.5,121.5 Z"/></g>
<g><path style="opacity:1" fill="#285f4d" d="M 202.5,123.5 C 206.167,125.167 208.833,127.833 210.5,131.5C 207.5,129.167 204.833,126.5 202.5,123.5 Z"/></g>
<g><path style="opacity:1" fill="#388e73" d="M 313.5,122.5 C 312.738,124.262 311.404,125.262 309.5,125.5C 310.262,123.738 311.596,122.738 313.5,122.5 Z"/></g>
<g><path style="opacity:1" fill="#3a9479" d="M 136.5,123.5 C 136.027,124.906 135.027,125.573 133.5,125.5C 133.973,124.094 134.973,123.427 136.5,123.5 Z"/></g>
<g><path style="opacity:1" fill="#48bc9b" d="M 372.5,123.5 C 373.833,124.167 375.167,124.833 376.5,125.5C 376.833,126.167 377.167,126.833 377.5,127.5C 374.937,127.269 373.27,125.935 372.5,123.5 Z"/></g>
<g><path style="opacity:1" fill="#204739" d="M 376.5,125.5 C 379.427,126.757 381.761,128.757 383.5,131.5C 383.167,131.5 382.833,131.5 382.5,131.5C 380.833,130.167 379.167,128.833 377.5,127.5C 377.167,126.833 376.833,126.167 376.5,125.5 Z"/></g>
<g><path style="opacity:1" fill="#388f74" d="M 133.5,125.5 C 130.5,129.167 127.167,132.5 123.5,135.5C 125.833,131.167 129.167,127.833 133.5,125.5 Z"/></g>
<g><path style="opacity:1" fill="#3b987c" d="M 309.5,125.5 C 306.5,129.167 303.167,132.5 299.5,135.5C 301.833,131.167 305.167,127.833 309.5,125.5 Z"/></g>
<g><path style="opacity:1" fill="#5df7cb" d="M 139.5,121.5 C 140.167,121.5 140.833,121.5 141.5,121.5C 140.386,122.885 139.386,124.385 138.5,126C 134.759,127.738 131.592,130.238 129,133.5C 119.446,145.873 114.946,159.873 115.5,175.5C 114.511,170.025 114.178,164.358 114.5,158.5C 114.448,156.097 114.781,153.764 115.5,151.5C 117.87,147.414 119.87,143.081 121.5,138.5C 122.906,138.027 123.573,137.027 123.5,135.5C 127.167,132.5 130.5,129.167 133.5,125.5C 135.027,125.573 136.027,124.906 136.5,123.5C 138.027,123.573 139.027,122.906 139.5,121.5 Z"/></g>
<g><path style="opacity:1" fill="#3b9679" d="M 382.5,131.5 C 382.833,131.5 383.167,131.5 383.5,131.5C 385.909,133.902 387.909,136.569 389.5,139.5C 386.427,137.431 384.094,134.764 382.5,131.5 Z"/></g>
<g><path style="opacity:1" fill="#36826c" d="M 210.5,131.5 C 211.906,131.973 212.573,132.973 212.5,134.5C 211.094,134.027 210.427,133.027 210.5,131.5 Z"/></g>
<g><path style="opacity:1" fill="#378c72" d="M 123.5,135.5 C 123.573,137.027 122.906,138.027 121.5,138.5C 121.427,136.973 122.094,135.973 123.5,135.5 Z"/></g>
<g><path style="opacity:1" fill="#3d9d7f" d="M 299.5,135.5 C 299.262,137.404 298.262,138.738 296.5,139.5C 296.738,137.596 297.738,136.262 299.5,135.5 Z"/></g>
<g><path style="opacity:1" fill="#5df7cb" d="M 320.5,119.5 C 321.167,119.5 321.833,119.5 322.5,119.5C 322.5,120.5 322.5,121.5 322.5,122.5C 314.604,124.762 307.938,129.096 302.5,135.5C 295.14,146.556 289.14,158.222 284.5,170.5C 283.5,170.5 282.5,170.5 281.5,170.5C 281.5,169.833 281.5,169.167 281.5,168.5C 281.5,168.167 281.5,167.833 281.5,167.5C 282.906,167.027 283.573,166.027 283.5,164.5C 283.5,164.167 283.5,163.833 283.5,163.5C 284.906,163.027 285.573,162.027 285.5,160.5C 286.674,159.486 287.34,158.153 287.5,156.5C 289.565,153.075 291.231,149.408 292.5,145.5C 294.738,144.147 296.071,142.147 296.5,139.5C 298.262,138.738 299.262,137.404 299.5,135.5C 303.167,132.5 306.5,129.167 309.5,125.5C 311.404,125.262 312.738,124.262 313.5,122.5C 316.238,122.294 318.572,121.294 320.5,119.5 Z"/></g>
<g><path style="opacity:1" fill="#307460" d="M 389.5,139.5 C 390.906,139.973 391.573,140.973 391.5,142.5C 390.094,142.027 389.427,141.027 389.5,139.5 Z"/></g>
<g><path style="opacity:1" fill="#3c9b7e" d="M 121.5,138.5 C 119.87,143.081 117.87,147.414 115.5,151.5C 116.357,146.575 118.357,142.242 121.5,138.5 Z"/></g>
<g><path style="opacity:1" fill="#337d67" d="M 296.5,139.5 C 296.071,142.147 294.738,144.147 292.5,145.5C 293.298,143.034 294.631,141.034 296.5,139.5 Z"/></g>
<g><path style="opacity:1" fill="#3a9478" d="M 213.5,136.5 C 217.088,140.549 219.755,145.216 221.5,150.5C 219.907,149.652 218.74,148.319 218,146.5C 216.398,143.184 214.898,139.851 213.5,136.5 Z"/></g>
<g><path style="opacity:1" fill="#307560" d="M 391.5,142.5 C 392.931,143.903 394.098,145.569 395,147.5C 395.49,148.793 395.657,150.127 395.5,151.5C 393.416,148.947 392.083,145.947 391.5,142.5 Z"/></g>
<g><path style="opacity:1" fill="#5df5ca" d="M 197.5,122.5 C 198.5,122.5 199.5,122.5 200.5,122.5C 201.167,122.833 201.833,123.167 202.5,123.5C 204.833,126.5 207.5,129.167 210.5,131.5C 210.427,133.027 211.094,134.027 212.5,134.5C 212.833,135.167 213.167,135.833 213.5,136.5C 214.898,139.851 216.398,143.184 218,146.5C 218.74,148.319 219.907,149.652 221.5,150.5C 221.157,152.483 221.824,153.817 223.5,154.5C 223.157,156.483 223.824,157.817 225.5,158.5C 225.5,159.167 225.5,159.833 225.5,160.5C 225.427,162.027 226.094,163.027 227.5,163.5C 227.5,163.833 227.5,164.167 227.5,164.5C 227.427,166.027 228.094,167.027 229.5,167.5C 229.328,168.492 229.662,169.158 230.5,169.5C 230.5,170.167 230.5,170.833 230.5,171.5C 229.778,171.918 229.278,172.584 229,173.5C 222.466,160.1 215.633,146.767 208.5,133.5C 204.431,130.098 200.764,126.431 197.5,122.5 Z"/></g>
<g><path style="opacity:1" fill="#34826a" d="M 292.5,145.5 C 291.231,149.408 289.565,153.075 287.5,156.5C 287.889,152.153 289.556,148.486 292.5,145.5 Z"/></g>
<g><path style="opacity:1" fill="#35856c" d="M 221.5,150.5 C 222.674,151.514 223.34,152.847 223.5,154.5C 221.824,153.817 221.157,152.483 221.5,150.5 Z"/></g>
<g><path style="opacity:1" fill="#28604d" d="M 115.5,151.5 C 114.781,153.764 114.448,156.097 114.5,158.5C 114.167,158.5 113.833,158.5 113.5,158.5C 113.338,156.473 113.505,154.473 114,152.5C 114.383,151.944 114.883,151.611 115.5,151.5 Z"/></g>
<g><path style="opacity:1" fill="#338068" d="M 223.5,154.5 C 224.674,155.514 225.34,156.847 225.5,158.5C 223.824,157.817 223.157,156.483 223.5,154.5 Z"/></g>
<g><path style="opacity:1" fill="#3b997c" d="M 287.5,156.5 C 287.34,158.153 286.674,159.486 285.5,160.5C 285.157,158.517 285.824,157.183 287.5,156.5 Z"/></g>
<g><path style="opacity:1" fill="#389276" d="M 225.5,160.5 C 226.906,160.973 227.573,161.973 227.5,163.5C 226.094,163.027 225.427,162.027 225.5,160.5 Z"/></g>
<g><path style="opacity:1" fill="#399176" d="M 285.5,160.5 C 285.573,162.027 284.906,163.027 283.5,163.5C 283.427,161.973 284.094,160.973 285.5,160.5 Z"/></g>
<g><path style="opacity:1" fill="#3fa284" d="M 113.5,158.5 C 113.833,158.5 114.167,158.5 114.5,158.5C 114.178,164.358 114.511,170.025 115.5,175.5C 116.8,179.095 117.8,182.762 118.5,186.5C 118.167,186.5 117.833,186.5 117.5,186.5C 113.886,177.568 112.553,168.235 113.5,158.5 Z"/></g>
<g><path style="opacity:1" fill="#35876d" d="M 227.5,164.5 C 228.906,164.973 229.573,165.973 229.5,167.5C 228.094,167.027 227.427,166.027 227.5,164.5 Z"/></g>
<g><path style="opacity:1" fill="#389276" d="M 283.5,164.5 C 283.573,166.027 282.906,167.027 281.5,167.5C 281.427,165.973 282.094,164.973 283.5,164.5 Z"/></g>
<g><path style="opacity:1" fill="#34846a" d="M 395.5,152.5 C 396.821,155.598 397.488,159.098 397.5,163C 397.499,166.683 397.165,170.183 396.5,173.5C 396.674,166.465 396.341,159.465 395.5,152.5 Z"/></g>
<g><path style="opacity:1" fill="#389074" d="M 281.5,168.5 C 281.5,169.167 281.5,169.833 281.5,170.5C 280.833,170.833 280.167,171.167 279.5,171.5C 279.427,169.973 280.094,168.973 281.5,168.5 Z"/></g>
<g><path style="opacity:1" fill="#255445" d="M 230.5,169.5 C 232.104,170.287 232.771,171.62 232.5,173.5C 231.833,172.833 231.167,172.167 230.5,171.5C 230.5,170.833 230.5,170.167 230.5,169.5 Z"/></g>
<g><path style="opacity:1" fill="#296251" d="M 279.5,171.5 C 279.573,173.027 278.906,174.027 277.5,174.5C 277.427,172.973 278.094,171.973 279.5,171.5 Z"/></g>
<g><path style="opacity:1" fill="#3b9479" d="M 232.5,173.5 C 234.38,175.755 235.38,178.422 235.5,181.5C 233.62,179.245 232.62,176.578 232.5,173.5 Z"/></g>
<g><path style="opacity:1" fill="#3d9c80" d="M 276.5,177.5 C 276.843,179.483 276.176,180.817 274.5,181.5C 274.66,179.847 275.326,178.514 276.5,177.5 Z"/></g>
<g><path style="opacity:1" fill="#2c6857" d="M 395.5,176.5 C 395.663,178.857 395.497,181.19 395,183.5C 394.617,184.056 394.117,184.389 393.5,184.5C 393.963,181.67 394.629,179.003 395.5,176.5 Z"/></g>
<g><path style="opacity:1" fill="#3c9b7e" d="M 274.5,181.5 C 274.843,183.483 274.176,184.817 272.5,185.5C 272.66,183.847 273.326,182.514 274.5,181.5 Z"/></g>
<g><path style="opacity:1" fill="#2b6754" d="M 117.5,186.5 C 117.833,186.5 118.167,186.5 118.5,186.5C 119.11,187.391 119.443,188.391 119.5,189.5C 118.094,189.027 117.427,188.027 117.5,186.5 Z"/></g>
<g><path style="opacity:1" fill="#327b65" d="M 272.5,185.5 C 271.397,189.497 269.731,193.164 267.5,196.5C 268.209,192.365 269.875,188.698 272.5,185.5 Z"/></g>
<g><path style="opacity:1" fill="#41a888" d="M 238.5,186.5 C 240.536,189.579 242.202,192.912 243.5,196.5C 243.5,197.167 243.5,197.833 243.5,198.5C 241.065,194.871 239.398,190.871 238.5,186.5 Z"/></g>
<g><path style="opacity:1" fill="#2d6857" d="M 121.5,194.5 C 122.906,194.973 123.573,195.973 123.5,197.5C 122.094,197.027 121.427,196.027 121.5,194.5 Z"/></g>
<g><path style="opacity:1" fill="#337f66" d="M 393.5,184.5 C 389.773,195.528 384.773,205.861 378.5,215.5C 383.102,204.92 388.102,194.587 393.5,184.5 Z"/></g>
<g><path style="opacity:1" fill="#285d4c" d="M 267.5,196.5 C 267.068,197.71 266.401,198.71 265.5,199.5C 265.285,197.821 265.952,196.821 267.5,196.5 Z"/></g>
<g><path style="opacity:1" fill="#2c6b58" d="M 243.5,196.5 C 245.245,198.033 246.245,200.033 246.5,202.5C 245.143,201.41 244.143,200.076 243.5,198.5C 243.5,197.833 243.5,197.167 243.5,196.5 Z"/></g>
<g><path style="opacity:1" fill="#285e4d" d="M 265.5,199.5 C 265.204,201.403 264.537,203.07 263.5,204.5C 263.12,202.302 263.787,200.635 265.5,199.5 Z"/></g>
<g><path style="opacity:1" fill="#35846b" d="M 125.5,201.5 C 126.674,202.514 127.34,203.847 127.5,205.5C 125.896,204.713 125.229,203.38 125.5,201.5 Z"/></g>
<g><path style="opacity:1" fill="#398e74" d="M 246.5,202.5 C 247.89,203.899 248.89,205.566 249.5,207.5C 247.241,206.656 246.241,204.989 246.5,202.5 Z"/></g>
<g><path style="opacity:1" fill="#35876d" d="M 263.5,204.5 C 263.262,206.404 262.262,207.738 260.5,208.5C 260.738,206.596 261.738,205.262 263.5,204.5 Z"/></g>
<g><path style="opacity:1" fill="#30715f" d="M 127.5,206.5 C 128.906,206.973 129.573,207.973 129.5,209.5C 128.094,209.027 127.427,208.027 127.5,206.5 Z"/></g>
<g><path style="opacity:1" fill="#3a9278" d="M 260.5,208.5 C 260.179,210.048 259.179,210.715 257.5,210.5C 258.29,209.599 259.29,208.932 260.5,208.5 Z"/></g>
<g><path style="opacity:1" fill="#2b6654" d="M 251.5,209.5 C 253.435,210.15 255.435,210.483 257.5,210.5C 255.301,213.132 253.301,212.799 251.5,209.5 Z"/></g>
<g><path style="opacity:1" fill="#265847" d="M 378.5,215.5 C 378.843,217.483 378.176,218.817 376.5,219.5C 376.66,217.847 377.326,216.514 378.5,215.5 Z"/></g>
<g><path style="opacity:1" fill="#2f725e" d="M 133.5,218.5 C 135.245,220.033 136.245,222.033 136.5,224.5C 134.755,222.967 133.755,220.967 133.5,218.5 Z"/></g>
<g><path style="opacity:1" fill="#285a4b" d="M 376.5,219.5 C 376.657,220.873 376.49,222.207 376,223.5C 372.292,231.499 368.125,239.166 363.5,246.5C 364.732,241.8 366.732,237.467 369.5,233.5C 371.842,228.789 374.175,224.123 376.5,219.5 Z"/></g>
<g><path style="opacity:1" fill="#317b65" d="M 137.5,226.5 C 138.931,227.903 140.098,229.569 141,231.5C 141.49,232.793 141.657,234.127 141.5,235.5C 139.416,232.947 138.083,229.947 137.5,226.5 Z"/></g>
<g><path style="opacity:1" fill="#3b997c" d="M 143.5,238.5 C 143.833,238.5 144.167,238.5 144.5,238.5C 145.234,239.708 145.567,241.041 145.5,242.5C 144.326,241.486 143.66,240.153 143.5,238.5 Z"/></g>
<g><path style="opacity:1" fill="#3d9d80" d="M 145.5,242.5 C 147.104,243.287 147.771,244.62 147.5,246.5C 147.167,246.5 146.833,246.5 146.5,246.5C 146.167,245.167 145.833,243.833 145.5,242.5 Z"/></g>
<g><path style="opacity:1" fill="#214c3f" d="M 146.5,246.5 C 146.833,246.5 147.167,246.5 147.5,246.5C 148.11,247.391 148.443,248.391 148.5,249.5C 147.094,249.027 146.427,248.027 146.5,246.5 Z"/></g>
<g><path style="opacity:1" fill="#388f75" d="M 148.5,249.5 C 150.727,250.401 151.727,252.067 151.5,254.5C 150.11,253.101 149.11,251.434 148.5,249.5 Z"/></g>
<g><path style="opacity:1" fill="#35856d" d="M 358.5,256.5 C 358.573,258.027 357.906,259.027 356.5,259.5C 356.427,257.973 357.094,256.973 358.5,256.5 Z"/></g>
<g><path style="opacity:1" fill="#378a71" d="M 356.5,259.5 C 356.771,261.38 356.104,262.713 354.5,263.5C 354.66,261.847 355.326,260.514 356.5,259.5 Z"/></g>
<g><path style="opacity:1" fill="#265948" d="M 154.5,262.5 C 155.906,262.973 156.573,263.973 156.5,265.5C 155.094,265.027 154.427,264.027 154.5,262.5 Z"/></g>
<g><path style="opacity:1" fill="#378c71" d="M 156.5,265.5 C 157.906,265.973 158.573,266.973 158.5,268.5C 157.094,268.027 156.427,267.027 156.5,265.5 Z"/></g>
<g><path style="opacity:1" fill="#3ea182" d="M 158.5,268.5 C 159.674,269.514 160.34,270.847 160.5,272.5C 160.167,272.5 159.833,272.5 159.5,272.5C 158.766,271.292 158.433,269.959 158.5,268.5 Z"/></g>
<g><path style="opacity:1" fill="#317863" d="M 354.5,263.5 C 354.313,265.564 353.813,267.564 353,269.5C 347.959,280.164 342.459,290.497 336.5,300.5C 341.743,287.754 347.743,275.421 354.5,263.5 Z"/></g>
<g><path style="opacity:1" fill="#5bf1c6" d="M 144.5,238.5 C 145.5,238.5 146.5,238.5 147.5,238.5C 153.356,251.56 159.523,264.56 166,277.5C 166.495,279.473 166.662,281.473 166.5,283.5C 166.167,283.5 165.833,283.5 165.5,283.5C 163.641,279.923 161.974,276.256 160.5,272.5C 160.34,270.847 159.674,269.514 158.5,268.5C 158.573,266.973 157.906,265.973 156.5,265.5C 156.573,263.973 155.906,262.973 154.5,262.5C 153.5,259.833 152.5,257.167 151.5,254.5C 151.727,252.067 150.727,250.401 148.5,249.5C 148.443,248.391 148.11,247.391 147.5,246.5C 147.771,244.62 147.104,243.287 145.5,242.5C 145.567,241.041 145.234,239.708 144.5,238.5 Z"/></g>
<g><path style="opacity:1" fill="#22473a" d="M 159.5,272.5 C 159.833,272.5 160.167,272.5 160.5,272.5C 161.974,276.256 163.641,279.923 165.5,283.5C 162.393,280.578 160.393,276.911 159.5,272.5 Z"/></g>
<g><path style="opacity:1" fill="#265446" d="M 165.5,283.5 C 165.833,283.5 166.167,283.5 166.5,283.5C 166.433,284.959 166.766,286.292 167.5,287.5C 165.824,286.817 165.157,285.483 165.5,283.5 Z"/></g>
<g><path style="opacity:1" fill="#5cf4c8" d="M 369.5,233.5 C 366.732,237.467 364.732,241.8 363.5,246.5C 361.855,249.789 360.189,253.123 358.5,256.5C 357.094,256.973 356.427,257.973 356.5,259.5C 355.326,260.514 354.66,261.847 354.5,263.5C 347.743,275.421 341.743,287.754 336.5,300.5C 334.604,302.837 333.27,305.504 332.5,308.5C 331.326,309.514 330.66,310.847 330.5,312.5C 328.896,313.287 328.229,314.62 328.5,316.5C 327.542,318.302 326.875,320.302 326.5,322.5C 325.542,322.953 324.708,323.619 324,324.5C 322.882,326.765 322.049,329.099 321.5,331.5C 319.952,331.821 319.285,332.821 319.5,334.5C 319.5,334.833 319.5,335.167 319.5,335.5C 317.952,335.821 317.285,336.821 317.5,338.5C 315.787,339.635 315.12,341.302 315.5,343.5C 314.89,344.391 314.557,345.391 314.5,346.5C 313.094,346.973 312.427,347.973 312.5,349.5C 312.5,349.833 312.5,350.167 312.5,350.5C 312.167,350.5 311.833,350.5 311.5,350.5C 311.187,347.753 311.52,345.086 312.5,342.5C 327.04,312.754 341.54,283.088 356,253.5C 357.011,252.663 358.178,252.33 359.5,252.5C 360.877,246.042 363.711,238.708 368,230.5C 368.232,231.737 368.732,232.737 369.5,233.5 Z"/></g>
<g><path style="opacity:1" fill="#30755f" d="M 168.5,290.5 C 170.104,291.287 170.771,292.62 170.5,294.5C 169.326,293.486 168.66,292.153 168.5,290.5 Z"/></g>
<g><path style="opacity:1" fill="#34826b" d="M 170.5,294.5 C 172.25,295.659 173.25,297.326 173.5,299.5C 171.75,298.341 170.75,296.674 170.5,294.5 Z"/></g>
<g><path style="opacity:1" fill="#399277" d="M 173.5,299.5 C 174.674,300.514 175.34,301.847 175.5,303.5C 173.896,302.713 173.229,301.38 173.5,299.5 Z"/></g>
<g><path style="opacity:1" fill="#399176" d="M 336.5,300.5 C 335.883,303.355 334.883,306.022 333.5,308.5C 333.167,308.5 332.833,308.5 332.5,308.5C 333.27,305.504 334.604,302.837 336.5,300.5 Z"/></g>
<g><path style="opacity:1" fill="#3fa486" d="M 175.5,303.5 C 177.346,305.03 178.346,307.03 178.5,309.5C 178.167,309.5 177.833,309.5 177.5,309.5C 176.37,307.685 175.704,305.685 175.5,303.5 Z"/></g>
<g><path style="opacity:1" fill="#234d40" d="M 332.5,308.5 C 332.833,308.5 333.167,308.5 333.5,308.5C 333.446,310.632 332.446,311.965 330.5,312.5C 330.66,310.847 331.326,309.514 332.5,308.5 Z"/></g>
<g><path style="opacity:1" fill="#255445" d="M 177.5,309.5 C 177.833,309.5 178.167,309.5 178.5,309.5C 179.828,312.497 181.161,315.497 182.5,318.5C 179.681,316.299 178.015,313.299 177.5,309.5 Z"/></g>
<g><path style="opacity:1" fill="#3d9d7f" d="M 330.5,312.5 C 330.34,314.153 329.674,315.486 328.5,316.5C 328.229,314.62 328.896,313.287 330.5,312.5 Z"/></g>
<g><path style="opacity:1" fill="#234c40" d="M 182.5,318.5 C 183.492,320.456 184.492,322.456 185.5,324.5C 185.5,325.167 185.5,325.833 185.5,326.5C 183.62,324.245 182.62,321.578 182.5,318.5 Z"/></g>
<g><path style="opacity:1" fill="#399276" d="M 185.5,324.5 C 187.213,325.635 187.88,327.302 187.5,329.5C 186.833,328.5 186.167,327.5 185.5,326.5C 185.5,325.833 185.5,325.167 185.5,324.5 Z"/></g>
<g><path style="opacity:1" fill="#275a4b" d="M 326.5,322.5 C 325.202,326.088 323.536,329.421 321.5,332.5C 321.5,332.167 321.5,331.833 321.5,331.5C 322.049,329.099 322.882,326.765 324,324.5C 324.708,323.619 325.542,322.953 326.5,322.5 Z"/></g>
<g><path style="opacity:1" fill="#3ea284" d="M 321.5,331.5 C 321.5,331.833 321.5,332.167 321.5,332.5C 320.833,333.167 320.167,333.833 319.5,334.5C 319.285,332.821 319.952,331.821 321.5,331.5 Z"/></g>
<g><path style="opacity:1" fill="#2a6553" d="M 187.5,329.5 C 191.3,335.005 194.3,341.005 196.5,347.5C 192.7,341.995 189.7,335.995 187.5,329.5 Z"/></g>
<g><path style="opacity:1" fill="#3fa284" d="M 319.5,335.5 C 319.068,336.71 318.401,337.71 317.5,338.5C 317.285,336.821 317.952,335.821 319.5,335.5 Z"/></g>
<g><path style="opacity:1" fill="#3d9c7f" d="M 317.5,338.5 C 317.204,340.403 316.537,342.07 315.5,343.5C 315.12,341.302 315.787,339.635 317.5,338.5 Z"/></g>
<g><path style="opacity:1" fill="#245546" d="M 314.5,346.5 C 314.573,348.027 313.906,349.027 312.5,349.5C 312.427,347.973 313.094,346.973 314.5,346.5 Z"/></g>
<g><path style="opacity:1" fill="#21483b" d="M 196.5,347.5 C 197.674,348.514 198.34,349.847 198.5,351.5C 196.824,350.817 196.157,349.483 196.5,347.5 Z"/></g>
<g><path style="opacity:1" fill="#255647" d="M 311.5,350.5 C 311.833,350.5 312.167,350.5 312.5,350.5C 312.573,352.027 311.906,353.027 310.5,353.5C 310.557,352.391 310.89,351.391 311.5,350.5 Z"/></g>
<g><path style="opacity:1" fill="#388f72" d="M 201.5,357.5 C 203.104,358.287 203.771,359.62 203.5,361.5C 202.326,360.486 201.66,359.153 201.5,357.5 Z"/></g>
<g><path style="opacity:1" fill="#338068" d="M 310.5,354.5 C 309.66,356.853 308.326,358.853 306.5,360.5C 306.845,357.802 308.178,355.802 310.5,354.5 Z"/></g>
<g><path style="opacity:1" fill="#3a9378" d="M 306.5,360.5 C 306.771,362.38 306.104,363.713 304.5,364.5C 304.66,362.847 305.326,361.514 306.5,360.5 Z"/></g>
<g><path style="opacity:1" fill="#4ac39f" d="M 204.5,363.5 C 207.093,365.008 208.426,367.341 208.5,370.5C 206.933,368.375 205.6,366.042 204.5,363.5 Z"/></g>
<g><path style="opacity:1" fill="#3a9477" d="M 304.5,364.5 C 304.771,366.38 304.104,367.713 302.5,368.5C 302.66,366.847 303.326,365.514 304.5,364.5 Z"/></g>
<g><path style="opacity:1" fill="#2d6b58" d="M 302.5,369.5 C 302.275,372.546 300.942,374.879 298.5,376.5C 299.468,373.9 300.801,371.566 302.5,369.5 Z"/></g>
<g><path style="opacity:1" fill="#2d705c" d="M 210.5,375.5 C 211.906,375.973 212.573,376.973 212.5,378.5C 211.094,378.027 210.427,377.027 210.5,375.5 Z"/></g>
<g><path style="opacity:1" fill="#275a4b" d="M 296.5,379.5 C 296.573,381.027 295.906,382.027 294.5,382.5C 294.427,380.973 295.094,379.973 296.5,379.5 Z"/></g>
<g><path style="opacity:1" fill="#3b977b" d="M 217.5,384.5 C 219.404,384.738 220.738,385.738 221.5,387.5C 219.596,387.262 218.262,386.262 217.5,384.5 Z"/></g>
<g><path style="opacity:1" fill="#2d6c58" d="M 291.5,385.5 C 290.292,388.044 288.292,389.378 285.5,389.5C 287.223,387.782 289.223,386.449 291.5,385.5 Z"/></g>
<g><path style="opacity:1" fill="#399176" d="M 223.5,389.5 C 225.404,389.738 226.738,390.738 227.5,392.5C 225.596,392.262 224.262,391.262 223.5,389.5 Z"/></g>
<g><path style="opacity:1" fill="#2b6654" d="M 285.5,390.5 C 285.047,391.458 284.381,392.292 283.5,393C 280.833,394.333 278.167,395.667 275.5,397C 272.379,398.608 269.046,399.441 265.5,399.5C 272.132,396.563 278.799,393.563 285.5,390.5 Z"/></g>
<g><path style="opacity:1" fill="#317862" d="M 229.5,393.5 C 235.084,395.916 240.75,397.916 246.5,399.5C 240.025,399.455 234.358,397.455 229.5,393.5 Z"/></g>
<g><path style="opacity:1" fill="#255043" d="M 246.5,399.5 C 251.5,399.5 256.5,399.5 261.5,399.5C 259.603,400.805 257.269,401.471 254.5,401.5C 252.167,401.333 249.833,401.167 247.5,401C 246.944,400.617 246.611,400.117 246.5,399.5 Z"/></g>
</svg>
