<?xml version="1.0" encoding="UTF-8"?>
<!DOCTYPE svg PUBLIC "-//W3C//DTD SVG 1.1//EN" "http://www.w3.org/Graphics/SVG/1.1/DTD/svg11.dtd">
<svg xmlns="http://www.w3.org/2000/svg" version="1.1" width="1024px" height="1024px" style="shape-rendering:geometricPrecision; text-rendering:geometricPrecision; image-rendering:optimizeQuality; fill-rule:evenodd; clip-rule:evenodd" xmlns:xlink="http://www.w3.org/1999/xlink">
<g><path style="opacity:1" fill="#151515" d="M 481.5,6.5 C 640.123,0.40103 774.29,54.0677 884,167.5C 990.16,286.36 1033.49,425.36 1014,584.5C 987.551,744.155 905.718,865.989 768.5,950C 652.055,1015.73 528.389,1034.4 397.5,1006C 257.28,970.716 149.78,891.549 75,768.5C 9.20616,652.061 -9.46051,528.394 19,397.5C 54.2839,257.28 133.451,149.78 256.5,75C 326.309,34.8952 401.309,12.0619 481.5,6.5 Z"/></g>
<g><path style="opacity:1" fill="#fefefd" d="M 494.5,246.5 C 506.5,246.5 518.5,246.5 530.5,246.5C 533.939,306.485 534.273,366.485 531.5,426.5C 533.288,426.785 534.955,426.452 536.5,425.5C 555.255,387.627 577.755,352.294 604,319.5C 611.197,311.969 618.697,304.802 626.5,298C 647.849,282.626 668.849,283.293 689.5,300C 704.178,313.689 715.344,329.855 723,348.5C 727.412,359.319 731.246,370.319 734.5,381.5C 789.223,384.779 829.39,410.445 855,458.5C 875.878,510.563 868.211,557.896 832,600.5C 805.177,627.321 772.677,641.821 734.5,644C 727.813,668.871 716.98,691.705 702,712.5C 689.713,728.393 673.547,737.06 653.5,738.5C 641.394,736.28 630.727,731.113 621.5,723C 602.149,704.089 585.315,683.255 571,660.5C 558.499,640.808 546.999,620.475 536.5,599.5C 534.955,598.548 533.288,598.215 531.5,598.5C 534.262,658.507 533.929,718.507 530.5,778.5C 518.5,778.5 506.5,778.5 494.5,778.5C 491.141,718.509 490.808,658.509 493.5,598.5C 491.712,598.215 490.045,598.548 488.5,599.5C 469.745,637.373 447.245,672.706 421,705.5C 382.656,751.055 346.989,749.055 314,699.5C 303.826,681.986 295.993,663.486 290.5,644C 236.779,640.411 196.946,615.244 171,568.5C 148.589,515.754 155.922,467.754 193,424.5C 219.733,397.303 252.233,382.97 290.5,381.5C 297.044,356.415 307.877,333.415 323,312.5C 333.573,299.3 347.073,290.8 363.5,287C 376.501,286.221 388.167,289.888 398.5,298C 420.33,317.487 438.83,339.654 454,364.5C 466.501,384.192 478.001,404.525 488.5,425.5C 490.045,426.452 491.712,426.785 493.5,426.5C 490.705,366.483 491.039,306.483 494.5,246.5 Z"/></g>
<g><path style="opacity:1" fill="#161615" d="M 364.5,331.5 C 368.792,331.035 372.792,331.868 376.5,334C 382.366,339.531 387.866,345.365 393,351.5C 414.903,380.967 435.57,411.3 455,442.5C 456.301,444.402 456.968,446.402 457,448.5C 455.867,450.211 454.367,450.711 452.5,450C 427.818,432.65 401.818,417.317 374.5,404C 361.242,397.702 347.575,392.535 333.5,388.5C 338.934,366.618 349.267,347.618 364.5,331.5 Z"/></g>
<g><path style="opacity:1" fill="#161615" d="M 651.5,331.5 C 654.978,331.184 658.312,331.684 661.5,333C 671.012,341.854 678.178,352.354 683,364.5C 686.337,372.346 689.17,380.346 691.5,388.5C 670.29,394.768 649.957,403.268 630.5,414C 609.739,425.125 589.906,437.625 571,451.5C 570,450.5 569,449.5 568,448.5C 570.066,443.034 572.733,437.7 576,432.5C 594.776,402.393 615.11,373.393 637,345.5C 641.729,340.603 646.562,335.936 651.5,331.5 Z"/></g>
<g><path style="opacity:1" fill="#161515" d="M 275.5,425.5 C 277.167,425.5 278.833,425.5 280.5,425.5C 274.582,462.268 272.415,499.268 274,536.5C 275.657,557.557 277.823,578.557 280.5,599.5C 247.079,593.911 222.912,575.911 208,545.5C 192.5,493.005 209.333,454.838 258.5,431C 264.249,429.027 269.916,427.194 275.5,425.5 Z"/></g>
<g><path style="opacity:1" fill="#161515" d="M 744.5,425.5 C 777.972,431.155 802.139,449.155 817,479.5C 831.483,521.375 821.316,555.875 786.5,583C 773.788,591.738 759.788,597.238 744.5,599.5C 753.766,541.489 753.766,483.489 744.5,425.5 Z"/></g>
<g><path style="opacity:1" fill="#161515" d="M 318.5,470.5 C 320.012,465.071 320.679,459.404 320.5,453.5C 320.91,446.126 321.744,438.793 323,431.5C 325.498,430.402 327.998,430.568 330.5,432C 353.9,442.534 376.9,453.867 399.5,466C 424.833,480.333 450.167,494.667 475.5,509C 476.769,511.139 476.769,513.305 475.5,515.5C 432.127,541.191 387.793,565.358 342.5,588C 336.375,590.875 330.042,593.041 323.5,594.5C 321.099,578.93 319.266,563.263 318,547.5C 317.204,521.81 317.37,496.143 318.5,470.5 Z"/></g>
<g><path style="opacity:1" fill="#161515" d="M 697.5,430.5 C 699.144,430.286 700.644,430.62 702,431.5C 707.252,469.657 708.918,507.991 707,546.5C 705.984,562.622 704.151,578.622 701.5,594.5C 695.674,593.259 690.007,591.425 684.5,589C 638.511,566.308 593.511,541.975 549.5,516C 547.91,512.769 548.577,510.103 551.5,508C 598.897,479.801 647.563,453.968 697.5,430.5 Z"/></g>
<g><path style="opacity:1" fill="#54452d" d="M 320.5,453.5 C 320.679,459.404 320.012,465.071 318.5,470.5C 318.596,464.627 319.263,458.96 320.5,453.5 Z"/></g>
<g><path style="opacity:1" fill="#161615" d="M 452.5,574.5 C 454.912,574.244 456.579,575.244 457.5,577.5C 439.824,607.529 420.657,636.529 400,664.5C 392.754,673.803 384.921,682.637 376.5,691C 372.782,693.298 368.782,693.965 364.5,693C 355.243,684.324 348.076,674.157 343,662.5C 339.134,654.066 335.967,645.4 333.5,636.5C 369.096,624.868 402.43,608.701 433.5,588C 440.014,583.637 446.347,579.137 452.5,574.5 Z"/></g>
<g><path style="opacity:1" fill="#161615" d="M 570.5,573.5 C 598.898,594.001 629.232,611.501 661.5,626C 671.227,630.368 681.227,633.868 691.5,636.5C 687.183,651.612 681.017,665.945 673,679.5C 669.478,684.019 665.645,688.185 661.5,692C 658.298,693.483 654.964,693.817 651.5,693C 644.333,687.167 637.833,680.667 632,673.5C 608.765,642.707 587.265,610.707 567.5,577.5C 568.524,576.148 569.524,574.815 570.5,573.5 Z"/></g>
</svg>
